<svg width="24" height="24" viewBox="0 0 24 24" fill="none" xmlns="http://www.w3.org/2000/svg">
<g clip-path="url(#clip0_4_173)">
<path d="M23.2969 1.73218H20.217C20.2282 1.39105 20.2344 1.04791 20.2344 0.703125C20.2344 0.314758 19.9195 0 19.5313 0H4.46869C4.0805 0 3.76556 0.314758 3.76556 0.703125C3.76556 1.04791 3.77179 1.39105 3.78296 1.73218H0.703125C0.314758 1.73218 0 2.04694 0 2.4353C0 5.58582 0.823425 8.55817 2.31848 10.8051C3.79633 13.0263 5.76489 14.3004 7.89148 14.4243C8.37359 14.9489 8.88318 15.3766 9.414 15.7029V18.828H8.23443C6.80841 18.828 5.64844 19.9882 5.64844 21.414V22.5936H5.59845C5.21008 22.5936 4.89532 22.9085 4.89532 23.2967C4.89532 23.6851 5.21008 23.9998 5.59845 23.9998H18.4015C18.7899 23.9998 19.1047 23.6851 19.1047 23.2967C19.1047 22.9085 18.7899 22.5936 18.4015 22.5936H18.3516V21.414C18.3516 19.9882 17.1916 18.828 15.7656 18.828H14.586V15.7029C15.1168 15.3768 15.6266 14.9489 16.1087 14.4243C18.2351 14.3004 20.2037 13.0263 21.6817 10.8051C23.1768 8.55817 24 5.58582 24 2.4353C24 2.04694 23.6852 1.73218 23.2969 1.73218ZM3.48926 10.0261C2.25604 8.17291 1.53149 5.74896 1.42108 3.13843H3.86151C4.11511 6.34753 4.86841 9.31384 6.04578 11.6684C6.23328 12.0434 6.42938 12.3977 6.63281 12.7313C5.46332 12.2897 4.38098 11.3665 3.48926 10.0261ZM16.9453 21.414V22.5938H7.05469V21.414C7.05469 20.7636 7.58386 20.2343 8.23443 20.2343H15.7656C16.4161 20.2343 16.9453 20.7636 16.9453 21.414ZM13.1797 18.828H10.8202V16.314C11.2068 16.4158 11.6006 16.4687 12 16.4687C12.3994 16.4687 12.7932 16.4158 13.1797 16.314V18.828ZM13.6152 14.6411C13.5835 14.6541 13.5531 14.6699 13.524 14.6873C13.027 14.9344 12.5164 15.0624 12 15.0624C11.4838 15.0624 10.9733 14.9344 10.4766 14.6876C10.4471 14.6699 10.4165 14.6541 10.3845 14.6407C9.83313 14.3492 9.29974 13.9091 8.79529 13.3306C8.76874 13.2927 8.73889 13.2578 8.70575 13.2259C8.20495 12.6313 7.73382 11.9 7.30353 11.0394C6.01135 8.45526 5.26501 5.05737 5.18005 1.40625H18.8199C18.7348 5.05737 17.9885 8.45545 16.6965 11.0394C16.2662 11.9 15.795 12.6313 15.2944 13.2259C15.2611 13.2578 15.2309 13.2929 15.2045 13.3308C14.7001 13.9094 14.1665 14.3494 13.6152 14.6411ZM20.5107 10.0261C19.619 11.3665 18.5367 12.2897 17.3672 12.7313C17.5706 12.3977 17.7667 12.0434 17.9542 11.6684C19.1316 9.31384 19.8847 6.34753 20.1385 3.13843H22.5789C22.4685 5.74896 21.744 8.17291 20.5107 10.0261Z" fill="white"/>
</g>
<defs>
<clipPath id="clip0_4_173">
<rect width="24" height="24" fill="white"/>
</clipPath>
</defs>
</svg>
