<svg width="24" height="24" viewBox="0 0 24 24" fill="none" xmlns="http://www.w3.org/2000/svg">
<path d="M22 11.0001C21.7348 11.0001 21.4804 11.1054 21.2929 11.293C21.1054 11.4805 21 11.7348 21 12.0001C21 13.7801 20.4722 15.5201 19.4832 17.0002C18.4943 18.4802 17.0887 19.6338 15.4442 20.315C13.7996 20.9962 11.99 21.1744 10.2442 20.8271C8.49836 20.4799 6.89472 19.6227 5.63604 18.364C4.37737 17.1053 3.5202 15.5017 3.17294 13.7559C2.82567 12.01 3.0039 10.2004 3.68509 8.55591C4.36628 6.91137 5.51983 5.50577 6.99987 4.51683C8.47992 3.5279 10.22 3.00006 12 3.00006C13.5497 2.99728 15.0733 3.3992 16.42 4.16606L15.293 5.29306C15.1532 5.43291 15.058 5.61108 15.0194 5.80503C14.9809 5.99898 15.0007 6.20002 15.0763 6.38271C15.152 6.56541 15.2801 6.72158 15.4445 6.83146C15.609 6.94135 15.8023 7.00002 16 7.00006H20C20.2652 7.00006 20.5196 6.8947 20.7071 6.70717C20.8946 6.51963 21 6.26528 21 6.00006V2.00006C21 1.80231 20.9413 1.60901 20.8314 1.4446C20.7215 1.28019 20.5654 1.15205 20.3827 1.07638C20.2 1.00071 19.9989 0.98091 19.805 1.01948C19.611 1.05804 19.4329 1.15325 19.293 1.29306L17.882 2.70006C16.124 1.58305 14.0828 0.993107 12 1.00006C9.82441 1.00006 7.69767 1.6452 5.88873 2.85389C4.07979 4.06259 2.66989 5.78056 1.83733 7.79054C1.00477 9.80053 0.786929 12.0123 1.21137 14.1461C1.6358 16.2798 2.68345 18.2399 4.22183 19.7782C5.76021 21.3166 7.72022 22.3643 9.85401 22.7887C11.9878 23.2131 14.1995 22.9953 16.2095 22.1627C18.2195 21.3302 19.9375 19.9203 21.1462 18.1113C22.3549 16.3024 23 14.1757 23 12.0001C23 11.7348 22.8946 11.4805 22.7071 11.293C22.5196 11.1054 22.2652 11.0001 22 11.0001Z" fill="white"/>
</svg>
